<svg width="483" height="142" viewBox="0 0 483 142" fill="none" xmlns="http://www.w3.org/2000/svg">
<path d="M4.84379 23.3011H17.8393V94.1859H39.2229V106H4.84379V23.3011ZM45.4549 23.3011H58.4504V106H45.4549V23.3011ZM68.1832 23.3011H84.4867L97.1278 72.8023H97.3641V23.3011H108.942V106H95.592L79.9973 45.6298H79.761V106H68.1832V23.3011ZM118.601 23.3011H131.596V58.1528L148.136 23.3011H161.132L145.655 53.6634L161.368 106H147.782L136.795 69.1399L131.596 79.6545V106H118.601V23.3011ZM167.519 23.3011H202.961V35.1152H180.514V56.9714H198.354V68.7855H180.514V94.1859H202.961V106H167.519V23.3011ZM210.437 23.3011H230.285C236.743 23.3011 241.587 25.0338 244.816 28.4993C248.046 31.9648 249.66 37.0449 249.66 43.7395V85.5616C249.66 92.2562 248.046 97.3363 244.816 100.802C241.587 104.267 236.743 106 230.285 106H210.437V23.3011ZM230.049 94.1859C232.175 94.1859 233.79 93.5558 234.893 92.2956C236.074 91.0354 236.665 88.9877 236.665 86.1523V43.1488C236.665 40.3135 236.074 38.2657 234.893 37.0055C233.79 35.7453 232.175 35.1152 230.049 35.1152H223.433V94.1859H230.049ZM294.247 107.181C287.947 107.181 283.182 105.409 279.952 101.865C276.723 98.2421 275.109 93.0832 275.109 86.3885V81.6629H287.395V87.3337C287.395 92.6894 289.64 95.3673 294.129 95.3673C296.335 95.3673 297.989 94.7372 299.091 93.477C300.273 92.1381 300.863 90.0115 300.863 87.0974C300.863 83.6319 300.076 80.5996 298.501 78.0005C296.925 75.3226 294.011 72.1328 289.758 68.4311C284.402 63.7054 280.661 59.4523 278.535 55.6718C276.408 51.8125 275.345 47.4807 275.345 42.6763C275.345 36.1391 276.999 31.0984 280.307 27.5542C283.615 23.9312 288.419 22.1197 294.72 22.1197C300.942 22.1197 305.628 23.9312 308.779 27.5542C312.008 31.0984 313.623 36.2179 313.623 42.9126V46.3387H301.336V42.0856C301.336 39.2502 300.785 37.2024 299.682 35.9422C298.579 34.6033 296.965 33.9338 294.838 33.9338C290.506 33.9338 288.34 36.5723 288.34 41.8493C288.34 44.8422 289.128 47.6382 290.703 50.2373C292.357 52.8364 295.311 55.9869 299.564 59.6886C304.998 64.4143 308.739 68.7067 310.787 72.566C312.835 76.4253 313.859 80.954 313.859 86.1523C313.859 92.9257 312.166 98.1239 308.779 101.747C305.471 105.37 300.627 107.181 294.247 107.181ZM321.31 23.3011H334.306V58.1528L350.845 23.3011H363.841L348.364 53.6634L364.077 106H350.491L339.504 69.1399L334.306 79.6545V106H321.31V23.3011ZM370.228 23.3011H383.224V106H370.228V23.3011ZM392.956 23.3011H409.26L421.901 72.8023H422.137V23.3011H433.715V106H420.365L404.77 45.6298H404.534V106H392.956V23.3011ZM460.268 107.181C453.967 107.181 449.202 105.409 445.973 101.865C442.744 98.2421 441.129 93.0832 441.129 86.3885V81.6629H453.416V87.3337C453.416 92.6894 455.661 95.3673 460.15 95.3673C462.355 95.3673 464.009 94.7372 465.112 93.477C466.293 92.1381 466.884 90.0115 466.884 87.0974C466.884 83.6319 466.097 80.5996 464.521 78.0005C462.946 75.3226 460.032 72.1328 455.779 68.4311C450.423 63.7054 446.682 59.4523 444.555 55.6718C442.429 51.8125 441.366 47.4807 441.366 42.6763C441.366 36.1391 443.02 31.0984 446.328 27.5542C449.636 23.9312 454.44 22.1197 460.741 22.1197C466.963 22.1197 471.649 23.9312 474.8 27.5542C478.029 31.0984 479.643 36.2179 479.643 42.9126V46.3387H467.357V42.0856C467.357 39.2502 466.805 37.2024 465.703 35.9422C464.6 34.6033 462.985 33.9338 460.859 33.9338C456.527 33.9338 454.361 36.5723 454.361 41.8493C454.361 44.8422 455.149 47.6382 456.724 50.2373C458.378 52.8364 461.332 55.9869 465.585 59.6886C471.019 64.4143 474.76 68.7067 476.808 72.566C478.856 76.4253 479.88 80.954 479.88 86.1523C479.88 92.9257 478.186 98.1239 474.8 101.747C471.492 105.37 466.648 107.181 460.268 107.181Z" fill="#243D8B"/>
<rect x="382" y="115" width="101" height="16" fill="#6EB44E"/>
<rect x="326" y="115" width="49" height="16" fill="#6EB44E"/>
<rect x="270" y="115" width="49" height="16" fill="#6EB44E"/>
<rect x="214" y="115" width="49" height="16" fill="#6EB44E"/>
<rect x="184" y="115" width="24" height="16" fill="#6EB44E"/>
<rect x="153" y="115" width="24" height="16" fill="#6EB44E"/>
<rect x="122" y="115" width="24" height="16" fill="#6EB44E"/>
<rect x="104" y="115" width="12" height="16" fill="#6EB44E"/>
<rect x="85" y="115" width="12" height="16" fill="#6EB44E"/>
<rect x="66" y="115" width="12" height="16" fill="#6EB44E"/>
<rect x="52" y="115" width="7" height="16" fill="#6EB44E"/>
<rect x="38" y="115" width="7" height="16" fill="#6EB44E"/>
<rect x="24" y="115" width="7" height="16" fill="#6EB44E"/>
<rect x="13" y="115" width="4" height="16" fill="#6EB44E"/>
<rect x="4" y="115" width="4" height="16" fill="#6EB44E"/>
</svg>
